<svg width="414" height="414" viewBox="0 0 414 414" fill="#0099ff" xmlns="http://www.w3.org/2000/svg" stroke="#0099ff">
<path fill-rule="evenodd" clip-rule="evenodd" d="M67.747 67.753C30.486 105.017 0 136.244 0 137.146C0 138.048 0.712001 139.059 1.582 139.393C2.452 139.727 32.827 140 69.082 140H135V207.5C135 273.667 135.04 275.04 137 277C138.96 278.96 140.333 279 206.5 279H274V344.918C274 381.173 274.273 411.548 274.607 412.418C274.941 413.288 275.955 414 276.86 414C277.765 414 308.992 383.511 346.253 346.247L414 278.495V141.702V4.909L411.545 2.45499L409.091 0H272.293H135.494L67.747 67.753Z" fill="#0099ff"/>
</svg>
